# xmcd CD database file
#
# Track frame offsets:
#	150
#	10467
#	26704
#	39250
#	53080
#	69189
#	82043
#	100041
#	113480
#	134093
#	150190
#	166067
#	179952
#	191418
#
# Disc length: 2761 seconds
#
# Revision: 9
# Processed by: cddbd v1.5.2PL0 Copyright (c) Steve Scherf et al.
# Submitted via: CDex 1.70beta2
#
DISCID=ac0ac70e
DTITLE=Garth Brooks - Sevens
DYEAR=1997
DGENRE=Country
TTITLE0=Longneck Bottle ( 1997 ) - Garth Brooks
TTITLE1=How You Ever Gonna Know ( 1997 ) - Garth Brooks
TTITLE2=She's Gonna Make It ( 1997 ) - Garth Brooks
TTITLE3=I Don't Have to Wonder ( 1997 ) - Garth Brooks
TTITLE4=Two Piña Coladas ( 1997 ) - Garth Brooks
TTITLE5=Cowboy Cadillac ( 1997 ) - Garth Brooks
TTITLE6=Fit for a King ( 1997 ) - Garth Brooks
TTITLE7=Do What You Gotta Do ( 1997 ) - Garth Brooks
TTITLE8=You Move Me ( 1997 ) - Garth Brooks
TTITLE9=In Another's Eyes (with Trisha Yearwood) ( 1997 ) - Garth Brooks
TTITLE10=When There's No One Around ( 1997 ) - Garth Brooks
TTITLE11=A Friend to Me ( 1997 ) - Garth Brooks
TTITLE12=Take the Keys to My Heart ( 1997 ) - Garth Brooks
TTITLE13=Belleau Wood ( 1997 ) - Garth Brooks
EXTD=YEAR: 1997
EXTT0=
EXTT1=
EXTT2=
EXTT3=
EXTT4=
EXTT5=
EXTT6=
EXTT7=
EXTT8=
EXTT9=
EXTT10=
EXTT11=
EXTT12=
EXTT13=
PLAYORDER=
